<?xml version="1.0" encoding="utf-8"?>
<!-- Generator: Adobe Illustrator 22.1.0, SVG Export Plug-In . SVG Version: 6.00 Build 0)  -->
<svg version="1.1" id="Livello_1" xmlns="http://www.w3.org/2000/svg" xmlns:xlink="http://www.w3.org/1999/xlink" x="0px" y="0px"
	 viewBox="0 0 66 66" style="enable-background:new 0 0 66 66;" xml:space="preserve">
<path d="M1,33c0,17.7,14.3,32,32,32s32-14.3,32-32S50.7,1,33,1S1,15.3,1,33z M42.4,51c-0.1,0-0.1,0-0.2,0
	c-14.1-1.3-25.1-13-25.1-26.7c0-2.5,0.4-4.9,1-7.3c0.2-0.6,0.7-1,1.3-1.1l6-0.8c1.9-0.4,3.8,0.8,4.2,2.8l1,5.3
	c0.2,1.2,0,2.5-0.7,3.5c-0.4,0.6-1.3,1.1-2.2,1.6c-0.3,0.2-0.8,0.5-1.2,0.7c1.5,4.2,4.4,7.8,8.3,10c0.3-0.1,1-0.5,1.4-0.8
	c0.9-0.6,1.7-1.1,2.5-1.2c1.2-0.1,2.5,0.2,3.5,1l2.7,2l1.6,1.3c0.7,0.5,1.2,1.4,1.3,2.3c0.1,0.9-0.1,1.9-0.7,2.6l-3.2,4.1
	C43.7,50.7,43.1,51,42.4,51z M45.7,44.8c0.2-0.3,0.3-0.7,0.3-1.1c-0.1-0.4-0.3-0.8-0.6-1l-1.6-1.3l-2.7-2c-0.6-0.5-1.3-0.7-2.1-0.6
	c-0.3,0-1.1,0.6-1.6,0.9c-0.6,0.4-1.2,0.8-1.7,1c-0.1,0.1-0.1,0.1-0.2,0.2c-0.3,0.2-0.7,0.2-1,0c-4.8-2.5-8.3-6.8-9.9-12
	c-0.1-0.3,0-0.6,0.1-0.8c0.4-0.6,1.3-1.1,2.2-1.6c0.5-0.3,1.3-0.7,1.5-0.9c0.4-0.6,0.5-1.3,0.4-2l-1-5.3c-0.2-0.8-1.1-1.4-1.9-1.2
	L20,17.8c-0.6,2.1-0.9,4.3-0.9,6.5C19.1,37,29.3,47.8,42.4,49c0.1,0,0.1,0,0.1,0L45.7,44.8"/>
</svg>
