<?xml version="1.0" encoding="utf-8"?>
<!-- Generator: Adobe Illustrator 22.1.0, SVG Export Plug-In . SVG Version: 6.00 Build 0)  -->
<svg version="1.1" id="Livello_1" xmlns="http://www.w3.org/2000/svg" xmlns:xlink="http://www.w3.org/1999/xlink" x="0px" y="0px"
	 viewBox="0 0 66 66" style="enable-background:new 0 0 66 66;" xml:space="preserve">
<path d="M18,42.4V23.8l7.7,8.2L18,42.4z M39.1,33.3l-0.8,0.9c-1.4,1.5-3.4,2.3-5.3,2.3c-1.8,0-3.6-0.7-5-2c-0.1-0.1-0.2-0.2-0.2-0.2
	L27,33.5l-7.9,10.7h27.5L39.1,33.3z M65,33c0,17.7-14.3,32-32,32S1,50.7,1,33C1,15.3,15.3,1,33,1S65,15.3,65,33z M50,22.5
	c0-1.4-1.1-2.5-2.5-2.5h-29c-1.4,0-2.5,1.1-2.5,2.5v21.2c0,1.4,1.1,2.5,2.5,2.5h29c1.4,0,2.5-1.1,2.5-2.5V22.5z M19.1,22l10.1,10.9
	c0,0.1,0.1,0.1,0.2,0.2c2.1,2,5.4,1.9,7.4-0.2L46.9,22H19.1z M40.5,31.8L48,42.6V23.8L40.5,31.8z"/>
</svg>
