<?xml version="1.0" encoding="utf-8"?>
<!-- Generator: Adobe Illustrator 22.1.0, SVG Export Plug-In . SVG Version: 6.00 Build 0)  -->
<svg version="1.1" id="Layer_1" xmlns="http://www.w3.org/2000/svg" xmlns:xlink="http://www.w3.org/1999/xlink" x="0px" y="0px"
	 viewBox="0 0 70 69.7" style="enable-background:new 0 0 70 69.7;" xml:space="preserve">
<path d="M35.2,1.5C16.8,1.5,1.9,16.4,1.9,34.8s14.9,33.3,33.3,33.3s33.3-14.9,33.3-33.3C68.4,16.5,53.5,1.6,35.2,1.5z M34.8,53.3
	c-1.5,0-2.8-1.2-2.8-2.8c0-1.5,1.2-2.8,2.8-2.8s2.8,1.2,2.8,2.8v0C37.6,52,36.4,53.3,34.8,53.3z M43.2,33c-0.3,0.4-0.7,0.8-1.1,1
	c-4,3-5.9,4.6-5.6,8.9c0.1,1-0.6,1.9-1.6,2c0,0-0.1,0-0.1,0h-0.2c-0.9,0-1.7-0.7-1.8-1.6c-0.6-6.6,3-9.4,6.9-12.2
	c0.3-0.3,0.5-0.4,0.8-0.7c1.8-1.6,2.5-4.2,1.6-6.5c-1-2.3-3.2-3.8-5.7-3.7c-2.7-0.1-5.6,1-7.2,2.7c-1.1,1.1-1.6,2.6-1.4,4.1
	c0.1,1-0.6,2-1.6,2.1c-1,0.1-2-0.6-2.1-1.6c-0.3-2.6,0.6-5.2,2.3-7c2.6-2.7,6.3-4.1,10-3.9c4,0,7.6,2.4,9.1,6.2
	C47,26.2,46,30.4,43.2,33z"/>
</svg>
